<svg version="1.1" viewBox="0.0 0.0 391.0 242.0" fill="none" stroke="none" stroke-linecap="square" stroke-miterlimit="10" width="391" height="242" xmlns:xlink="http://www.w3.org/1999/xlink" xmlns="http://www.w3.org/2000/svg"><path fill="#ffffff" d="M0 0L391.0 0L391.0 242.0L0 242.0L0 0Z" fill-rule="nonzero"/><path fill="#b4a7d6" d="M207.175 30.19392C242.40604 30.19392 272.58618 55.411106 278.8485 90.08111L207.175 103.02725Z" fill-rule="nonzero"/><path fill="#dd7e6b" d="M267.17352 104.053856C272.621 134.21265 258.6065 164.55511 232.11362 179.9614C205.6207 195.36768 172.3178 192.54143 148.79999 172.89099C125.28216 153.24055 116.581314 120.970345 127.03314 92.16084C137.48497 63.351345 164.85318 44.166668 195.5 44.166668L195.5 117.0Z" fill-rule="nonzero"/><path fill="#000000" d="M221.63585 74.03047L221.63585 75.21797L215.01085 75.21797Q214.99522 74.78047 215.15147 74.3586Q215.4171 73.68672 215.96397 73.03047Q216.52647 72.37422 217.57335 71.51485Q219.21397 70.1711 219.77647 69.38985Q220.3546 68.6086 220.3546 67.90547Q220.3546 67.1711 219.82335 66.6711Q219.30772 66.1711 218.4796 66.1711Q217.58897 66.1711 217.0421 66.70235Q216.51085 67.2336 216.51085 68.18672L215.24522 68.0461Q215.37022 66.63985 216.21397 65.90547Q217.07335 65.15547 218.49522 65.15547Q219.94835 65.15547 220.77647 65.95235Q221.62022 66.74922 221.62022 67.93672Q221.62022 68.5461 221.37022 69.12422Q221.13585 69.70235 220.55772 70.34297Q219.99522 70.9836 218.6671 72.1086Q217.55772 73.03047 217.24522 73.37422Q216.93272 73.70235 216.7296 74.03047L221.63585 74.03047ZM229.63585 74.03047L229.63585 75.21797L223.01085 75.21797Q222.99522 74.78047 223.15147 74.3586Q223.4171 73.68672 223.96397 73.03047Q224.52647 72.37422 225.57335 71.51485Q227.21397 70.1711 227.77647 69.38985Q228.3546 68.6086 228.3546 67.90547Q228.3546 67.1711 227.82335 66.6711Q227.30772 66.1711 226.4796 66.1711Q225.58897 66.1711 225.0421 66.70235Q224.51085 67.2336 224.51085 68.18672L223.24522 68.0461Q223.37022 66.63985 224.21397 65.90547Q225.07335 65.15547 226.49522 65.15547Q227.94835 65.15547 228.77647 65.95235Q229.62022 66.74922 229.62022 67.93672Q229.62022 68.5461 229.37022 69.12422Q229.13585 69.70235 228.55772 70.34297Q227.99522 70.9836 226.6671 72.1086Q225.55772 73.03047 225.24522 73.37422Q224.93272 73.70235 224.7296 74.03047L229.63585 74.03047ZM231.8546 75.21797L231.8546 73.81172L233.26085 73.81172L233.26085 75.21797L231.8546 75.21797ZM241.63585 74.03047L241.63585 75.21797L235.01085 75.21797Q234.99522 74.78047 235.15147 74.3586Q235.4171 73.68672 235.96397 73.03047Q236.52647 72.37422 237.57335 71.51485Q239.21397 70.1711 239.77647 69.38985Q240.3546 68.6086 240.3546 67.90547Q240.3546 67.1711 239.82335 66.6711Q239.30772 66.1711 238.4796 66.1711Q237.58897 66.1711 237.0421 66.70235Q236.51085 67.2336 236.51085 68.18672L235.24522 68.0461Q235.37022 66.63985 236.21397 65.90547Q237.07335 65.15547 238.49522 65.15547Q239.94835 65.15547 240.77647 65.95235Q241.62022 66.74922 241.62022 67.93672Q241.62022 68.5461 241.37022 69.12422Q241.13585 69.70235 240.55772 70.34297Q239.99522 70.9836 238.6671 72.1086Q237.55772 73.03047 237.24522 73.37422Q236.93272 73.70235 236.7296 74.03047L241.63585 74.03047ZM243.40147 67.6086Q243.40147 66.53047 243.93272 65.78047Q244.4796 65.03047 245.51085 65.03047Q246.44835 65.03047 247.05772 65.70235Q247.68272 66.37422 247.68272 67.6711Q247.68272 68.95235 247.05772 69.63985Q246.43272 70.32735 245.52647 70.32735Q244.62022 70.32735 244.01085 69.65547Q243.40147 68.96797 243.40147 67.6086ZM245.5421 65.87422Q245.08897 65.87422 244.77647 66.28047Q244.4796 66.6711 244.4796 67.71797Q244.4796 68.68672 244.77647 69.07735Q245.08897 69.46797 245.5421 69.46797Q246.01085 69.46797 246.30772 69.07735Q246.62022 68.68672 246.62022 67.62422Q246.62022 66.65547 246.30772 66.26485Q245.99522 65.87422 245.5421 65.87422ZM245.5421 75.59297L251.02647 65.03047L252.02647 65.03047L246.57335 75.59297L245.5421 75.59297ZM249.88585 72.8586Q249.88585 71.78047 250.4171 71.0461Q250.96397 70.2961 251.99522 70.2961Q252.93272 70.2961 253.55772 70.96797Q254.18272 71.63985 254.18272 72.93672Q254.18272 74.21797 253.55772 74.90547Q252.93272 75.59297 251.99522 75.59297Q251.08897 75.59297 250.4796 74.9211Q249.88585 74.2336 249.88585 72.8586ZM252.02647 71.13985Q251.55772 71.13985 251.26085 71.5461Q250.96397 71.93672 250.96397 72.9836Q250.96397 73.95235 251.26085 74.34297Q251.57335 74.7336 252.02647 74.7336Q252.49522 74.7336 252.7921 74.34297Q253.1046 73.95235 253.1046 72.88985Q253.1046 71.9211 252.7921 71.53047Q252.49522 71.13985 252.02647 71.13985Z" fill-rule="nonzero"/><path fill="#000000" d="M148.74228 146.10616L148.74228 144.91866L155.24228 144.91866L155.24228 145.87178Q154.27353 146.8874 153.33603 148.5749Q152.39853 150.2624 151.8829 152.05928Q151.52353 153.30928 151.41415 154.80928L150.14853 154.80928Q150.16415 153.62178 150.60165 151.9499Q151.05478 150.27803 151.8829 148.73116Q152.72665 147.16866 153.66415 146.10616L148.74228 146.10616ZM156.74228 146.10616L156.74228 144.91866L163.24228 144.91866L163.24228 145.87178Q162.27353 146.8874 161.33603 148.5749Q160.39853 150.2624 159.8829 152.05928Q159.52353 153.30928 159.41415 154.80928L158.14853 154.80928Q158.16415 153.62178 158.60165 151.9499Q159.05478 150.27803 159.8829 148.73116Q160.72665 147.16866 161.66415 146.10616L156.74228 146.10616ZM165.35165 154.80928L165.35165 153.40303L166.7579 153.40303L166.7579 154.80928L165.35165 154.80928ZM170.55478 149.37178Q169.78915 149.09053 169.41415 148.5749Q169.05478 148.05928 169.05478 147.3249Q169.05478 146.23116 169.83603 145.49678Q170.6329 144.74678 171.92978 144.74678Q173.24228 144.74678 174.03915 145.5124Q174.85165 146.27803 174.85165 147.37178Q174.85165 148.05928 174.47665 148.5749Q174.11728 149.09053 173.36728 149.37178Q174.28915 149.66866 174.77353 150.34053Q175.2579 151.0124 175.2579 151.9499Q175.2579 153.23116 174.35165 154.10616Q173.4454 154.98116 171.96103 154.98116Q170.47665 154.98116 169.55478 154.10616Q168.64853 153.21553 168.64853 151.90303Q168.64853 150.93428 169.14853 150.27803Q169.64853 149.60616 170.55478 149.37178ZM170.3204 147.29366Q170.3204 147.99678 170.77353 148.4499Q171.22665 148.90303 171.96103 148.90303Q172.67978 148.90303 173.1329 148.46553Q173.58603 148.0124 173.58603 147.35616Q173.58603 146.68428 173.11728 146.23116Q172.64853 145.7624 171.9454 145.7624Q171.24228 145.7624 170.77353 146.21553Q170.3204 146.65303 170.3204 147.29366ZM169.91415 151.91866Q169.91415 152.4499 170.16415 152.9499Q170.41415 153.43428 170.89853 153.6999Q171.39853 153.96553 171.97665 153.96553Q172.85165 153.96553 173.41415 153.40303Q173.99228 152.84053 173.99228 151.96553Q173.99228 151.0749 173.39853 150.49678Q172.8204 149.90303 171.92978 149.90303Q171.05478 149.90303 170.47665 150.48116Q169.91415 151.05928 169.91415 151.91866ZM176.89853 147.1999Q176.89853 146.12178 177.42978 145.37178Q177.97665 144.62178 179.0079 144.62178Q179.9454 144.62178 180.55478 145.29366Q181.17978 145.96553 181.17978 147.2624Q181.17978 148.54366 180.55478 149.23116Q179.92978 149.91866 179.02353 149.91866Q178.11728 149.91866 177.5079 149.24678Q176.89853 148.55928 176.89853 147.1999ZM179.03915 145.46553Q178.58603 145.46553 178.27353 145.87178Q177.97665 146.2624 177.97665 147.30928Q177.97665 148.27803 178.27353 148.66866Q178.58603 149.05928 179.03915 149.05928Q179.5079 149.05928 179.80478 148.66866Q180.11728 148.27803 180.11728 147.21553Q180.11728 146.24678 179.80478 145.85616Q179.49228 145.46553 179.03915 145.46553ZM179.03915 155.18428L184.52353 144.62178L185.52353 144.62178L180.0704 155.18428L179.03915 155.18428ZM183.3829 152.4499Q183.3829 151.37178 183.91415 150.6374Q184.46103 149.8874 185.49228 149.8874Q186.42978 149.8874 187.05478 150.55928Q187.67978 151.23116 187.67978 152.52803Q187.67978 153.80928 187.05478 154.49678Q186.42978 155.18428 185.49228 155.18428Q184.58603 155.18428 183.97665 154.5124Q183.3829 153.8249 183.3829 152.4499ZM185.52353 150.73116Q185.05478 150.73116 184.7579 151.1374Q184.46103 151.52803 184.46103 152.5749Q184.46103 153.54366 184.7579 153.93428Q185.0704 154.3249 185.52353 154.3249Q185.99228 154.3249 186.28915 153.93428Q186.60165 153.54366 186.60165 152.48116Q186.60165 151.5124 186.28915 151.12178Q185.99228 150.73116 185.52353 150.73116Z" fill-rule="nonzero"/><path fill="#b4a7d6" d="M24.1 204.9C24.1 208.21371 21.413708 210.9 18.1 210.9C14.786291 210.9 12.1 208.21371 12.1 204.9C12.1 201.58629 14.786291 198.9 18.1 198.9C21.413708 198.9 24.1 201.58629 24.1 204.9Z" fill-rule="nonzero"/><path fill="#1a1a1a" d="M35.209373 208.9L35.209373 201.32187L32.38125 201.32187L32.38125 200.30624L39.19375 200.30624L39.19375 201.32187L36.35 201.32187L36.35 208.9L35.209373 208.9ZM39.50625 205.79062Q39.50625 204.05624 40.459373 203.22812Q41.25625 202.54062 42.4125 202.54062Q43.69375 202.54062 44.50625 203.38437Q45.334373 204.2125 45.334373 205.69687Q45.334373 206.9 44.975 207.5875Q44.615623 208.275 43.9125 208.66562Q43.225 209.04062 42.4125 209.04062Q41.115623 209.04062 40.303123 208.2125Q39.50625 207.36874 39.50625 205.79062ZM40.584373 205.79062Q40.584373 206.97812 41.1 207.57187Q41.63125 208.16562 42.4125 208.16562Q43.209373 208.16562 43.725 207.57187Q44.240623 206.97812 44.240623 205.75937Q44.240623 204.60312 43.709373 204.00937Q43.19375 203.41562 42.4125 203.41562Q41.63125 203.41562 41.1 204.00937Q40.584373 204.5875 40.584373 205.79062ZM49.19375 207.9625L49.35 208.88437Q48.896873 208.97812 48.553123 208.97812Q47.975 208.97812 47.6625 208.80624Q47.35 208.61874 47.209373 208.32187Q47.084373 208.025 47.084373 207.07187L47.084373 203.49374L46.31875 203.49374L46.31875 202.68124L47.084373 202.68124L47.084373 201.13437L48.13125 200.50937L48.13125 202.68124L49.19375 202.68124L49.19375 203.49374L48.13125 203.49374L48.13125 207.13437Q48.13125 207.5875 48.178123 207.7125Q48.240623 207.8375 48.365623 207.91562Q48.490623 207.99374 48.725 207.99374Q48.9125 207.99374 49.19375 207.9625ZM53.959373 208.13437Q53.365623 208.63437 52.81875 208.8375Q52.2875 209.04062 51.6625 209.04062Q50.63125 209.04062 50.084373 208.54062Q49.5375 208.04062 49.5375 207.25937Q49.5375 206.80624 49.740623 206.43124Q49.94375 206.04062 50.2875 205.82187Q50.63125 205.5875 51.053123 205.47812Q51.35 205.38437 51.990623 205.30624Q53.25625 205.16562 53.865623 204.94687Q53.865623 204.72812 53.865623 204.68124Q53.865623 204.025 53.56875 203.75937Q53.1625 203.41562 52.365623 203.41562Q51.63125 203.41562 51.271873 203.68124Q50.9125 203.93124 50.740623 204.5875L49.709373 204.44687Q49.85 203.79062 50.178123 203.38437Q50.50625 202.97812 51.115623 202.75937Q51.725 202.54062 52.521873 202.54062Q53.31875 202.54062 53.81875 202.72812Q54.31875 202.91562 54.553123 203.19687Q54.7875 203.47812 54.88125 203.91562Q54.928123 204.18124 54.928123 204.88437L54.928123 206.29062Q54.928123 207.75937 54.990623 208.15Q55.06875 208.54062 55.271873 208.9L54.1625 208.9Q54.00625 208.57187 53.959373 208.13437ZM53.865623 205.775Q53.2875 206.00937 52.146873 206.18124Q51.490623 206.275 51.225 206.4Q50.959373 206.50937 50.803123 206.72812Q50.6625 206.94687 50.6625 207.22812Q50.6625 207.65 50.975 207.93124Q51.303123 208.2125 51.9125 208.2125Q52.521873 208.2125 52.990623 207.94687Q53.475 207.68124 53.69375 207.2125Q53.865623 206.85312 53.865623 206.16562L53.865623 205.775ZM56.865623 208.9L56.865623 200.30624L57.928123 200.30624L57.928123 208.9L56.865623 208.9ZM63.021873 208.9L63.021873 200.30624L66.27187 200.30624Q67.11562 200.30624 67.56875 200.38437Q68.20937 200.49374 68.63125 200.79062Q69.06875 201.0875 69.31875 201.61874Q69.58437 202.15 69.58437 202.79062Q69.58437 203.88437 68.88125 204.65Q68.19375 205.4 66.36562 205.4L64.1625 205.4L64.1625 208.9L63.021873 208.9ZM64.1625 204.4L66.38125 204.4Q67.49062 204.4 67.94375 203.99374Q68.4125 203.57187 68.4125 202.82187Q68.4125 202.29062 68.13125 201.91562Q67.86562 201.525 67.42812 201.4Q67.13125 201.32187 66.36562 201.32187L64.1625 201.32187L64.1625 204.4ZM75.14687 206.9L76.24062 207.025Q75.99062 207.97812 75.2875 208.50937Q74.58437 209.04062 73.50625 209.04062Q72.14687 209.04062 71.33437 208.19687Q70.5375 207.35312 70.5375 205.8375Q70.5375 204.275 71.35 203.41562Q72.1625 202.54062 73.44375 202.54062Q74.69375 202.54062 75.475 203.38437Q76.27187 204.22812 76.27187 205.775Q76.27187 205.86874 76.27187 206.05624L71.63125 206.05624Q71.69375 207.0875 72.20937 207.63437Q72.725 208.16562 73.50625 208.16562Q74.08437 208.16562 74.49062 207.86874Q74.9125 207.55624 75.14687 206.9ZM71.69375 205.19687L75.1625 205.19687Q75.1 204.4 74.77187 204.00937Q74.25625 203.4 73.45937 203.4Q72.725 203.4 72.225 203.88437Q71.74062 204.36874 71.69375 205.19687ZM77.88125 208.9L77.88125 202.68124L78.83437 202.68124L78.83437 203.61874Q79.19375 202.9625 79.49062 202.75937Q79.80312 202.54062 80.17812 202.54062Q80.70937 202.54062 81.25625 202.86874L80.89687 203.85312Q80.50625 203.61874 80.13125 203.61874Q79.77187 203.61874 79.49062 203.8375Q79.225 204.04062 79.11562 204.41562Q78.92812 204.97812 78.92812 205.63437L78.92812 208.9L77.88125 208.9ZM85.95937 206.61874L86.99062 206.75937Q86.81875 207.82187 86.11562 208.43124Q85.4125 209.04062 84.39687 209.04062Q83.11562 209.04062 82.33437 208.2125Q81.56875 207.36874 81.56875 205.80624Q81.56875 204.80624 81.89687 204.05624Q82.24062 203.29062 82.9125 202.91562Q83.6 202.54062 84.4125 202.54062Q85.4125 202.54062 86.05312 203.05624Q86.70937 203.55624 86.89687 204.50937L85.86562 204.66562Q85.725 204.04062 85.35 203.72812Q84.975 203.4 84.44375 203.4Q83.64687 203.4 83.14687 203.97812Q82.64687 204.54062 82.64687 205.775Q82.64687 207.04062 83.13125 207.60312Q83.61562 208.16562 84.38125 208.16562Q85.00625 208.16562 85.4125 207.79062Q85.83437 207.41562 85.95937 206.61874ZM92.14687 206.9L93.24062 207.025Q92.99062 207.97812 92.2875 208.50937Q91.58437 209.04062 90.50625 209.04062Q89.14687 209.04062 88.33437 208.19687Q87.5375 207.35312 87.5375 205.8375Q87.5375 204.275 88.35 203.41562Q89.1625 202.54062 90.44375 202.54062Q91.69375 202.54062 92.475 203.38437Q93.27187 204.22812 93.27187 205.775Q93.27187 205.86874 93.27187 206.05624L88.63125 206.05624Q88.69375 207.0875 89.20937 207.63437Q89.725 208.16562 90.50625 208.16562Q91.08437 208.16562 91.49062 207.86874Q91.9125 207.55624 92.14687 206.9ZM88.69375 205.19687L92.1625 205.19687Q92.1 204.4 91.77187 204.00937Q91.25625 203.4 90.45937 203.4Q89.725 203.4 89.225 203.88437Q88.74062 204.36874 88.69375 205.19687ZM94.89687 208.9L94.89687 202.68124L95.83437 202.68124L95.83437 203.55624Q96.52187 202.54062 97.81875 202.54062Q98.38125 202.54062 98.85 202.74374Q99.33437 202.94687 99.56875 203.275Q99.80312 203.60312 99.89687 204.04062Q99.94375 204.3375 99.94375 205.07187L99.94375 208.9L98.89687 208.9L98.89687 205.11874Q98.89687 204.4625 98.77187 204.15Q98.64687 203.8375 98.33437 203.65Q98.02187 203.44687 97.6 203.44687Q96.92812 203.44687 96.42812 203.88437Q95.94375 204.30624 95.94375 205.49374L95.94375 208.9L94.89687 208.9ZM104.19375 207.9625L104.35 208.88437Q103.89687 208.97812 103.55312 208.97812Q102.975 208.97812 102.6625 208.80624Q102.35 208.61874 102.20937 208.32187Q102.08437 208.025 102.08437 207.07187L102.08437 203.49374L101.31875 203.49374L101.31875 202.68124L102.08437 202.68124L102.08437 201.13437L103.13125 200.50937L103.13125 202.68124L104.19375 202.68124L104.19375 203.49374L103.13125 203.49374L103.13125 207.13437Q103.13125 207.5875 103.17812 207.7125Q103.24062 207.8375 103.36562 207.91562Q103.49062 207.99374 103.725 207.99374Q103.9125 207.99374 104.19375 207.9625ZM109.0375 208.9L107.13125 202.68124L108.225 202.68124L109.20937 206.275L109.58437 207.60312Q109.61562 207.50937 109.9125 206.32187L110.89687 202.68124L111.975 202.68124L112.9125 206.29062L113.225 207.47812L113.58437 206.275L114.64687 202.68124L115.67812 202.68124L113.725 208.9L112.63125 208.9L111.64687 205.16562L111.39687 204.11874L110.14687 208.9L109.0375 208.9ZM116.1 209.04062L118.58437 200.16562L119.42812 200.16562L116.94375 209.04062L116.1 209.04062ZM122.88125 208.9L122.88125 202.68124L123.83437 202.68124L123.83437 203.61874Q124.19375 202.9625 124.49062 202.75937Q124.80312 202.54062 125.17812 202.54062Q125.70937 202.54062 126.25625 202.86874L125.89687 203.85312Q125.50625 203.61874 125.13125 203.61874Q124.77187 203.61874 124.49062 203.8375Q124.225 204.04062 124.11562 204.41562Q123.92812 204.97812 123.92812 205.63437L123.92812 208.9L122.88125 208.9ZM131.14688 206.9L132.24063 207.025Q131.99063 207.97812 131.2875 208.50937Q130.58438 209.04062 129.50626 209.04062Q128.14688 209.04062 127.33437 208.19687Q126.5375 207.35312 126.5375 205.8375Q126.5375 204.275 127.35 203.41562Q128.1625 202.54062 129.44376 202.54062Q130.69376 202.54062 131.475 203.38437Q132.27188 204.22812 132.27188 205.775Q132.27188 205.86874 132.27188 206.05624L127.63125 206.05624Q127.69375 207.0875 128.20938 207.63437Q128.725 208.16562 129.50626 208.16562Q130.08438 208.16562 130.49063 207.86874Q130.9125 207.55624 131.14688 206.9ZM127.69375 205.19687L131.1625 205.19687Q131.1 204.4 130.77188 204.00937Q130.25626 203.4 129.45938 203.4Q128.725 203.4 128.225 203.88437Q127.74062 204.36874 127.69375 205.19687ZM137.975 208.9L137.975 207.97812Q137.24063 209.04062 135.99063 209.04062Q135.44376 209.04062 134.95938 208.8375Q134.49063 208.61874 134.25626 208.30624Q134.02188 207.97812 133.92813 207.50937Q133.86563 207.2125 133.86563 206.525L133.86563 202.68124L134.92813 202.68124L134.92813 206.13437Q134.92813 206.94687 134.99063 207.24374Q135.08438 207.65 135.39688 207.9Q135.725 208.13437 136.20938 208.13437Q136.67813 208.13437 137.08438 207.9Q137.50626 207.65 137.67813 207.22812Q137.86563 206.80624 137.86563 206.00937L137.86563 202.68124L138.9125 202.68124L138.9125 208.9L137.975 208.9ZM140.475 207.04062L141.50626 206.88437Q141.6 207.50937 141.99063 207.8375Q142.39688 208.16562 143.13126 208.16562Q143.85 208.16562 144.19376 207.88437Q144.55313 207.5875 144.55313 207.18124Q144.55313 206.82187 144.24063 206.61874Q144.02188 206.47812 143.1625 206.25937Q142.00626 205.9625 141.55313 205.75937Q141.11563 205.54062 140.88126 205.16562Q140.64688 204.79062 140.64688 204.32187Q140.64688 203.91562 140.83438 203.55624Q141.02188 203.19687 141.35 202.9625Q141.6 202.79062 142.02188 202.66562Q142.44376 202.54062 142.94376 202.54062Q143.6625 202.54062 144.20938 202.75937Q144.77188 202.9625 145.0375 203.32187Q145.30313 203.68124 145.39688 204.275L144.36563 204.41562Q144.30313 203.94687 143.95938 203.68124Q143.63126 203.4 143.00626 203.4Q142.2875 203.4 141.975 203.65Q141.6625 203.88437 141.6625 204.2125Q141.6625 204.41562 141.7875 204.57187Q141.92813 204.74374 142.19376 204.85312Q142.35 204.91562 143.13126 205.11874Q144.25626 205.43124 144.69376 205.61874Q145.13126 205.80624 145.38126 206.16562Q145.63126 206.525 145.63126 207.07187Q145.63126 207.60312 145.31876 208.07187Q145.02188 208.525 144.44376 208.79062Q143.86563 209.04062 143.13126 209.04062Q141.9125 209.04062 141.27188 208.54062Q140.64688 208.025 140.475 207.04062ZM151.14688 206.9L152.24063 207.025Q151.99063 207.97812 151.2875 208.50937Q150.58438 209.04062 149.50626 209.04062Q148.14688 209.04062 147.33438 208.19687Q146.5375 207.35312 146.5375 205.8375Q146.5375 204.275 147.35 203.41562Q148.1625 202.54062 149.44376 202.54062Q150.69376 202.54062 151.475 203.38437Q152.27188 204.22812 152.27188 205.775Q152.27188 205.86874 152.27188 206.05624L147.63126 206.05624Q147.69376 207.0875 148.20938 207.63437Q148.725 208.16562 149.50626 208.16562Q150.08438 208.16562 150.49063 207.86874Q150.9125 207.55624 151.14688 206.9ZM147.69376 205.19687L151.1625 205.19687Q151.1 204.4 150.77188 204.00937Q150.25626 203.4 149.45938 203.4Q148.725 203.4 148.225 203.88437Q147.74063 204.36874 147.69376 205.19687ZM157.95938 208.13437Q157.36563 208.63437 156.81876 208.8375Q156.2875 209.04062 155.6625 209.04062Q154.63126 209.04062 154.08438 208.54062Q153.5375 208.04062 153.5375 207.25937Q153.5375 206.80624 153.74063 206.43124Q153.94376 206.04062 154.2875 205.82187Q154.63126 205.5875 155.05313 205.47812Q155.35 205.38437 155.99063 205.30624Q157.25626 205.16562 157.86563 204.94687Q157.86563 204.72812 157.86563 204.68124Q157.86563 204.025 157.56876 203.75937Q157.1625 203.41562 156.36563 203.41562Q155.63126 203.41562 155.27188 203.68124Q154.9125 203.93124 154.74063 204.5875L153.70938 204.44687Q153.85 203.79062 154.17813 203.38437Q154.50626 202.97812 155.11563 202.75937Q155.725 202.54062 156.52188 202.54062Q157.31876 202.54062 157.81876 202.72812Q158.31876 202.91562 158.55313 203.19687Q158.7875 203.47812 158.88126 203.91562Q158.92813 204.18124 158.92813 204.88437L158.92813 206.29062Q158.92813 207.75937 158.99063 208.15Q159.06876 208.54062 159.27188 208.9L158.1625 208.9Q158.00626 208.57187 157.95938 208.13437ZM157.86563 205.775Q157.2875 206.00937 156.14688 206.18124Q155.49063 206.275 155.225 206.4Q154.95938 206.50937 154.80313 206.72812Q154.6625 206.94687 154.6625 207.22812Q154.6625 207.65 154.975 207.93124Q155.30313 208.2125 155.9125 208.2125Q156.52188 208.2125 156.99063 207.94687Q157.475 207.68124 157.69376 207.2125Q157.86563 206.85312 157.86563 206.16562L157.86563 205.775ZM161.86563 208.9L160.88126 208.9L160.88126 200.30624L161.94376 200.30624L161.94376 203.36874Q162.61563 202.54062 163.64688 202.54062Q164.225 202.54062 164.725 202.775Q165.24063 202.99374 165.56876 203.41562Q165.9125 203.8375 166.1 204.43124Q166.2875 205.025 166.2875 205.69687Q166.2875 207.29062 165.49063 208.16562Q164.69376 209.04062 163.6 209.04062Q162.49063 209.04062 161.86563 208.11874L161.86563 208.9ZM161.85 205.74374Q161.85 206.85312 162.1625 207.35312Q162.6625 208.16562 163.50626 208.16562Q164.19376 208.16562 164.69376 207.57187Q165.20938 206.97812 165.20938 205.775Q165.20938 204.55624 164.725 203.97812Q164.24063 203.4 163.55313 203.4Q162.86563 203.4 162.35 204.00937Q161.85 204.60312 161.85 205.74374ZM167.86563 208.9L167.86563 200.30624L168.92813 200.30624L168.92813 208.9L167.86563 208.9ZM175.14688 206.9L176.24063 207.025Q175.99063 207.97812 175.2875 208.50937Q174.58438 209.04062 173.50626 209.04062Q172.14688 209.04062 171.33438 208.19687Q170.5375 207.35312 170.5375 205.8375Q170.5375 204.275 171.35 203.41562Q172.1625 202.54062 173.44376 202.54062Q174.69376 202.54062 175.475 203.38437Q176.27188 204.22812 176.27188 205.775Q176.27188 205.86874 176.27188 206.05624L171.63126 206.05624Q171.69376 207.0875 172.20938 207.63437Q172.725 208.16562 173.50626 208.16562Q174.08438 208.16562 174.49063 207.86874Q174.9125 207.55624 175.14688 206.9ZM171.69376 205.19687L175.1625 205.19687Q175.1 204.4 174.77188 204.00937Q174.25626 203.4 173.45938 203.4Q172.725 203.4 172.225 203.88437Q171.74063 204.36874 171.69376 205.19687ZM180.89688 208.9L180.89688 202.68124L181.83438 202.68124L181.83438 203.55624Q182.13126 203.0875 182.61563 202.82187Q183.1 202.54062 183.725 202.54062Q184.4125 202.54062 184.85 202.82187Q185.30313 203.10312 185.475 203.61874Q186.225 202.54062 187.39688 202.54062Q188.33438 202.54062 188.81876 203.05624Q189.31876 203.55624 189.31876 204.63437L189.31876 208.9L188.27188 208.9L188.27188 204.97812Q188.27188 204.35312 188.1625 204.07187Q188.06876 203.79062 187.80313 203.61874Q187.5375 203.44687 187.1625 203.44687Q186.50626 203.44687 186.06876 203.88437Q185.64688 204.32187 185.64688 205.29062L185.64688 208.9L184.58438 208.9L184.58438 204.85312Q184.58438 204.15 184.31876 203.80624Q184.06876 203.44687 183.49063 203.44687Q183.0375 203.44687 182.6625 203.68124Q182.2875 203.91562 182.11563 204.36874Q181.94376 204.82187 181.94376 205.66562L181.94376 208.9L180.89688 208.9ZM194.975 208.9L194.975 207.97812Q194.24063 209.04062 192.99063 209.04062Q192.44376 209.04062 191.95938 208.8375Q191.49063 208.61874 191.25626 208.30624Q191.02188 207.97812 190.92813 207.50937Q190.86563 207.2125 190.86563 206.525L190.86563 202.68124L191.92813 202.68124L191.92813 206.13437Q191.92813 206.94687 191.99063 207.24374Q192.08438 207.65 192.39688 207.9Q192.725 208.13437 193.20938 208.13437Q193.67813 208.13437 194.08438 207.9Q194.50626 207.65 194.67813 207.22812Q194.86563 206.80624 194.86563 206.00937L194.86563 202.68124L195.9125 202.68124L195.9125 208.9L194.975 208.9ZM197.69376 209.41562L198.725 209.57187Q198.7875 210.04062 199.08438 210.25937Q199.475 210.55624 200.14688 210.55624Q200.88126 210.55624 201.27188 210.25937Q201.67813 209.9625 201.81876 209.44687Q201.9125 209.11874 201.89688 208.0875Q201.20938 208.9 200.17813 208.9Q198.89688 208.9 198.19376 207.97812Q197.49063 207.04062 197.49063 205.75937Q197.49063 204.86874 197.80313 204.11874Q198.13126 203.35312 198.74063 202.94687Q199.35 202.54062 200.17813 202.54062Q201.2875 202.54062 202.00626 203.43124L202.00626 202.68124L202.975 202.68124L202.975 208.05624Q202.975 209.50937 202.67813 210.11874Q202.38126 210.72812 201.74063 211.07187Q201.1 211.43124 200.1625 211.43124Q199.05313 211.43124 198.36563 210.93124Q197.67813 210.43124 197.69376 209.41562ZM198.56876 205.68124Q198.56876 206.9 199.05313 207.4625Q199.5375 208.025 200.27188 208.025Q201.00626 208.025 201.49063 207.4625Q201.99063 206.9 201.99063 205.7125Q201.99063 204.57187 201.475 203.99374Q200.975 203.41562 200.25626 203.41562Q199.55313 203.41562 199.05313 203.99374Q198.56876 204.55624 198.56876 205.68124Z" fill-rule="nonzero"/><path fill="#dd7e6b" d="M107.5 222.9C107.5 226.21371 104.813705 228.9 101.5 228.9C98.186295 228.9 95.5 226.21371 95.5 222.9C95.5 219.58629 98.186295 216.9 101.5 216.9C104.813705 216.9 107.5 219.58629 107.5 222.9Z" fill-rule="nonzero"/><path fill="#1a1a1a" d="M118.609375 226.9L118.609375 219.32187L115.78125 219.32187L115.78125 218.30624L122.59375 218.30624L122.59375 219.32187L119.75 219.32187L119.75 226.9L118.609375 226.9ZM122.90625 223.79062Q122.90625 222.05624 123.859375 221.22812Q124.65625 220.54062 125.8125 220.54062Q127.09375 220.54062 127.90625 221.38437Q128.73438 222.2125 128.73438 223.69687Q128.73438 224.9 128.375 225.5875Q128.01562 226.275 127.3125 226.66562Q126.625 227.04062 125.8125 227.04062Q124.515625 227.04062 123.703125 226.2125Q122.90625 225.36874 122.90625 223.79062ZM123.984375 223.79062Q123.984375 224.97812 124.5 225.57187Q125.03125 226.16562 125.8125 226.16562Q126.609375 226.16562 127.125 225.57187Q127.640625 224.97812 127.640625 223.75937Q127.640625 222.60312 127.109375 222.00937Q126.59375 221.41562 125.8125 221.41562Q125.03125 221.41562 124.5 222.00937Q123.984375 222.5875 123.984375 223.79062ZM132.59375 225.9625L132.75 226.88437Q132.29688 226.97812 131.95312 226.97812Q131.375 226.97812 131.0625 226.80624Q130.75 226.61874 130.60938 226.32187Q130.48438 226.025 130.48438 225.07187L130.48438 221.49374L129.71875 221.49374L129.71875 220.68124L130.48438 220.68124L130.48438 219.13437L131.53125 218.50937L131.53125 220.68124L132.59375 220.68124L132.59375 221.49374L131.53125 221.49374L131.53125 225.13437Q131.53125 225.5875 131.57812 225.7125Q131.64062 225.8375 131.76562 225.91562Q131.89062 225.99374 132.125 225.99374Q132.3125 225.99374 132.59375 225.9625ZM137.35938 226.13437Q136.76562 226.63437 136.21875 226.8375Q135.6875 227.04062 135.0625 227.04062Q134.03125 227.04062 133.48438 226.54062Q132.9375 226.04062 132.9375 225.25937Q132.9375 224.80624 133.14062 224.43124Q133.34375 224.04062 133.6875 223.82187Q134.03125 223.5875 134.45312 223.47812Q134.75 223.38437 135.39062 223.30624Q136.65625 223.16562 137.26562 222.94687Q137.26562 222.72812 137.26562 222.68124Q137.26562 222.025 136.96875 221.75937Q136.5625 221.41562 135.76562 221.41562Q135.03125 221.41562 134.67188 221.68124Q134.3125 221.93124 134.14062 222.5875L133.10938 222.44687Q133.25 221.79062 133.57812 221.38437Q133.90625 220.97812 134.51562 220.75937Q135.125 220.54062 135.92188 220.54062Q136.71875 220.54062 137.21875 220.72812Q137.71875 220.91562 137.95312 221.19687Q138.1875 221.47812 138.28125 221.91562Q138.32812 222.18124 138.32812 222.88437L138.32812 224.29062Q138.32812 225.75937 138.39062 226.15Q138.46875 226.54062 138.67188 226.9L137.5625 226.9Q137.40625 226.57187 137.35938 226.13437ZM137.26562 223.775Q136.6875 224.00937 135.54688 224.18124Q134.89062 224.275 134.625 224.4Q134.35938 224.50937 134.20312 224.72812Q134.0625 224.94687 134.0625 225.22812Q134.0625 225.65 134.375 225.93124Q134.70312 226.2125 135.3125 226.2125Q135.92188 226.2125 136.39062 225.94687Q136.875 225.68124 137.09375 225.2125Q137.26562 224.85312 137.26562 224.16562L137.26562 223.775ZM140.26562 226.9L140.26562 218.30624L141.32812 218.30624L141.32812 226.9L140.26562 226.9ZM146.42188 226.9L146.42188 218.30624L149.67188 218.30624Q150.51562 218.30624 150.96875 218.38437Q151.60938 218.49374 152.03125 218.79062Q152.46875 219.0875 152.71875 219.61874Q152.98438 220.15 152.98438 220.79062Q152.98438 221.88437 152.28125 222.65Q151.59375 223.4 149.76562 223.4L147.5625 223.4L147.5625 226.9L146.42188 226.9ZM147.5625 222.4L149.78125 222.4Q150.89062 222.4 151.34375 221.99374Q151.8125 221.57187 151.8125 220.82187Q151.8125 220.29062 151.53125 219.91562Q151.26562 219.525 150.82812 219.4Q150.53125 219.32187 149.76562 219.32187L147.5625 219.32187L147.5625 222.4ZM158.54688 224.9L159.64062 225.025Q159.39062 225.97812 158.6875 226.50937Q157.98438 227.04062 156.90625 227.04062Q155.54688 227.04062 154.73438 226.19687Q153.9375 225.35312 153.9375 223.8375Q153.9375 222.275 154.75 221.41562Q155.5625 220.54062 156.84375 220.54062Q158.09375 220.54062 158.875 221.38437Q159.67188 222.22812 159.67188 223.775Q159.67188 223.86874 159.67188 224.05624L155.03125 224.05624Q155.09375 225.0875 155.60938 225.63437Q156.125 226.16562 156.90625 226.16562Q157.48438 226.16562 157.89062 225.86874Q158.3125 225.55624 158.54688 224.9ZM155.09375 223.19687L158.5625 223.19687Q158.5 222.4 158.17188 222.00937Q157.65625 221.4 156.85938 221.4Q156.125 221.4 155.625 221.88437Q155.14062 222.36874 155.09375 223.19687ZM161.28125 226.9L161.28125 220.68124L162.23438 220.68124L162.23438 221.61874Q162.59375 220.9625 162.89062 220.75937Q163.20312 220.54062 163.57812 220.54062Q164.10938 220.54062 164.65625 220.86874L164.29688 221.85312Q163.90625 221.61874 163.53125 221.61874Q163.17188 221.61874 162.89062 221.8375Q162.625 222.04062 162.51562 222.41562Q162.32812 222.97812 162.32812 223.63437L162.32812 226.9L161.28125 226.9ZM169.35938 224.61874L170.39062 224.75937Q170.21875 225.82187 169.51562 226.43124Q168.8125 227.04062 167.79688 227.04062Q166.51562 227.04062 165.73438 226.2125Q164.96875 225.36874 164.96875 223.80624Q164.96875 222.80624 165.29688 222.05624Q165.64062 221.29062 166.3125 220.91562Q167.0 220.54062 167.8125 220.54062Q168.8125 220.54062 169.45312 221.05624Q170.10938 221.55624 170.29688 222.50937L169.26562 222.66562Q169.125 222.04062 168.75 221.72812Q168.375 221.4 167.84375 221.4Q167.04688 221.4 166.54688 221.97812Q166.04688 222.54062 166.04688 223.775Q166.04688 225.04062 166.53125 225.60312Q167.01562 226.16562 167.78125 226.16562Q168.40625 226.16562 168.8125 225.79062Q169.23438 225.41562 169.35938 224.61874ZM175.54688 224.9L176.64062 225.025Q176.39062 225.97812 175.6875 226.50937Q174.98438 227.04062 173.90625 227.04062Q172.54688 227.04062 171.73438 226.19687Q170.9375 225.35312 170.9375 223.8375Q170.9375 222.275 171.75 221.41562Q172.5625 220.54062 173.84375 220.54062Q175.09375 220.54062 175.875 221.38437Q176.67188 222.22812 176.67188 223.775Q176.67188 223.86874 176.67188 224.05624L172.03125 224.05624Q172.09375 225.0875 172.60938 225.63437Q173.125 226.16562 173.90625 226.16562Q174.48438 226.16562 174.89062 225.86874Q175.3125 225.55624 175.54688 224.9ZM172.09375 223.19687L175.5625 223.19687Q175.5 222.4 175.17188 222.00937Q174.65625 221.4 173.85938 221.4Q173.125 221.4 172.625 221.88437Q172.14062 222.36874 172.09375 223.19687ZM178.29688 226.9L178.29688 220.68124L179.23438 220.68124L179.23438 221.55624Q179.92188 220.54062 181.21875 220.54062Q181.78125 220.54062 182.25 220.74374Q182.73438 220.94687 182.96875 221.275Q183.20312 221.60312 183.29688 222.04062Q183.34375 222.3375 183.34375 223.07187L183.34375 226.9L182.29688 226.9L182.29688 223.11874Q182.29688 222.4625 182.17188 222.15Q182.04688 221.8375 181.73438 221.65Q181.42188 221.44687 181.0 221.44687Q180.32812 221.44687 179.82812 221.88437Q179.34375 222.30624 179.34375 223.49374L179.34375 226.9L178.29688 226.9ZM187.59375 225.9625L187.75 226.88437Q187.29688 226.97812 186.95312 226.97812Q186.375 226.97812 186.0625 226.80624Q185.75 226.61874 185.60938 226.32187Q185.48438 226.025 185.48438 225.07187L185.48438 221.49374L184.71875 221.49374L184.71875 220.68124L185.48438 220.68124L185.48438 219.13437L186.53125 218.50937L186.53125 220.68124L187.59375 220.68124L187.59375 221.49374L186.53125 221.49374L186.53125 225.13437Q186.53125 225.5875 186.57812 225.7125Q186.64062 225.8375 186.76562 225.91562Q186.89062 225.99374 187.125 225.99374Q187.3125 225.99374 187.59375 225.9625ZM191.42188 226.9L191.42188 218.30624L192.57812 218.30624L197.09375 225.05624L197.09375 218.30624L198.1875 218.30624L198.1875 226.9L197.01562 226.9L192.5 220.15L192.5 226.9L191.42188 226.9ZM199.90625 223.79062Q199.90625 222.05624 200.85938 221.22812Q201.65625 220.54062 202.8125 220.54062Q204.09375 220.54062 204.90625 221.38437Q205.73438 222.2125 205.73438 223.69687Q205.73438 224.9 205.375 225.5875Q205.01562 226.275 204.3125 226.66562Q203.625 227.04062 202.8125 227.04062Q201.51562 227.04062 200.70312 226.2125Q199.90625 225.36874 199.90625 223.79062ZM200.98438 223.79062Q200.98438 224.97812 201.5 225.57187Q202.03125 226.16562 202.8125 226.16562Q203.60938 226.16562 204.125 225.57187Q204.64062 224.97812 204.64062 223.75937Q204.64062 222.60312 204.10938 222.00937Q203.59375 221.41562 202.8125 221.41562Q202.03125 221.41562 201.5 222.00937Q200.98438 222.5875 200.98438 223.79062ZM207.29688 226.9L207.29688 220.68124L208.23438 220.68124L208.23438 221.55624Q208.92188 220.54062 210.21875 220.54062Q210.78125 220.54062 211.25 220.74374Q211.73438 220.94687 211.96875 221.275Q212.20312 221.60312 212.29688 222.04062Q212.34375 222.3375 212.34375 223.07187L212.34375 226.9L211.29688 226.9L211.29688 223.11874Q211.29688 222.4625 211.17188 222.15Q211.04688 221.8375 210.73438 221.65Q210.42188 221.44687 210.0 221.44687Q209.32812 221.44687 208.82812 221.88437Q208.34375 222.30624 208.34375 223.49374L208.34375 226.9L207.29688 226.9ZM214.28125 226.9L214.28125 220.68124L215.23438 220.68124L215.23438 221.61874Q215.59375 220.9625 215.89062 220.75937Q216.20312 220.54062 216.57812 220.54062Q217.10938 220.54062 217.65625 220.86874L217.29688 221.85312Q216.90625 221.61874 216.53125 221.61874Q216.17188 221.61874 215.89062 221.8375Q215.625 222.04062 215.51562 222.41562Q215.32812 222.97812 215.32812 223.63437L215.32812 226.9L214.28125 226.9ZM222.54688 224.9L223.64062 225.025Q223.39062 225.97812 222.6875 226.50937Q221.98438 227.04062 220.90625 227.04062Q219.54688 227.04062 218.73438 226.19687Q217.9375 225.35312 217.9375 223.8375Q217.9375 222.275 218.75 221.41562Q219.5625 220.54062 220.84375 220.54062Q222.09375 220.54062 222.875 221.38437Q223.67188 222.22812 223.67188 223.775Q223.67188 223.86874 223.67188 224.05624L219.03125 224.05624Q219.09375 225.0875 219.60938 225.63437Q220.125 226.16562 220.90625 226.16562Q221.48438 226.16562 221.89062 225.86874Q222.3125 225.55624 222.54688 224.9ZM219.09375 223.19687L222.5625 223.19687Q222.5 222.4 222.17188 222.00937Q221.65625 221.4 220.85938 221.4Q220.125 221.4 219.625 221.88437Q219.14062 222.36874 219.09375 223.19687ZM229.375 226.9L229.375 225.97812Q228.64062 227.04062 227.39062 227.04062Q226.84375 227.04062 226.35938 226.8375Q225.89062 226.61874 225.65625 226.30624Q225.42188 225.97812 225.32812 225.50937Q225.26562 225.2125 225.26562 224.525L225.26562 220.68124L226.32812 220.68124L226.32812 224.13437Q226.32812 224.94687 226.39062 225.24374Q226.48438 225.65 226.79688 225.9Q227.125 226.13437 227.60938 226.13437Q228.07812 226.13437 228.48438 225.9Q228.90625 225.65 229.07812 225.22812Q229.26562 224.80624 229.26562 224.00937L229.26562 220.68124L230.3125 220.68124L230.3125 226.9L229.375 226.9ZM231.875 225.04062L232.90625 224.88437Q233.0 225.50937 233.39062 225.8375Q233.79688 226.16562 234.53125 226.16562Q235.25 226.16562 235.59375 225.88437Q235.95312 225.5875 235.95312 225.18124Q235.95312 224.82187 235.64062 224.61874Q235.42188 224.47812 234.5625 224.25937Q233.40625 223.9625 232.95312 223.75937Q232.51562 223.54062 232.28125 223.16562Q232.04688 222.79062 232.04688 222.32187Q232.04688 221.91562 232.23438 221.55624Q232.42188 221.19687 232.75 220.9625Q233.0 220.79062 233.42188 220.66562Q233.84375 220.54062 234.34375 220.54062Q235.0625 220.54062 235.60938 220.75937Q236.17188 220.9625 236.4375 221.32187Q236.70312 221.68124 236.79688 222.275L235.76562 222.41562Q235.70312 221.94687 235.35938 221.68124Q235.03125 221.4 234.40625 221.4Q233.6875 221.4 233.375 221.65Q233.0625 221.88437 233.0625 222.2125Q233.0625 222.41562 233.1875 222.57187Q233.32812 222.74374 233.59375 222.85312Q233.75 222.91562 234.53125 223.11874Q235.65625 223.43124 236.09375 223.61874Q236.53125 223.80624 236.78125 224.16562Q237.03125 224.525 237.03125 225.07187Q237.03125 225.60312 236.71875 226.07187Q236.42188 226.525 235.84375 226.79062Q235.26562 227.04062 234.53125 227.04062Q233.3125 227.04062 232.67188 226.54062Q232.04688 226.025 231.875 225.04062ZM242.54688 224.9L243.64062 225.025Q243.39062 225.97812 242.6875 226.50937Q241.98438 227.04062 240.90625 227.04062Q239.54688 227.04062 238.73438 226.19687Q237.9375 225.35312 237.9375 223.8375Q237.9375 222.275 238.75 221.41562Q239.5625 220.54062 240.84375 220.54062Q242.09375 220.54062 242.875 221.38437Q243.67188 222.22812 243.67188 223.775Q243.67188 223.86874 243.67188 224.05624L239.03125 224.05624Q239.09375 225.0875 239.60938 225.63437Q240.125 226.16562 240.90625 226.16562Q241.48438 226.16562 241.89062 225.86874Q242.3125 225.55624 242.54688 224.9ZM239.09375 223.19687L242.5625 223.19687Q242.5 222.4 242.17188 222.00937Q241.65625 221.4 240.85938 221.4Q240.125 221.4 239.625 221.88437Q239.14062 222.36874 239.09375 223.19687ZM249.35938 226.13437Q248.76562 226.63437 248.21875 226.8375Q247.6875 227.04062 247.0625 227.04062Q246.03125 227.04062 245.48438 226.54062Q244.9375 226.04062 244.9375 225.25937Q244.9375 224.80624 245.14062 224.43124Q245.34375 224.04062 245.6875 223.82187Q246.03125 223.5875 246.45312 223.47812Q246.75 223.38437 247.39062 223.30624Q248.65625 223.16562 249.26562 222.94687Q249.26562 222.72812 249.26562 222.68124Q249.26562 222.025 248.96875 221.75937Q248.5625 221.41562 247.76562 221.41562Q247.03125 221.41562 246.67188 221.68124Q246.3125 221.93124 246.14062 222.5875L245.10938 222.44687Q245.25 221.79062 245.57812 221.38437Q245.90625 220.97812 246.51562 220.75937Q247.125 220.54062 247.92188 220.54062Q248.71875 220.54062 249.21875 220.72812Q249.71875 220.91562 249.95312 221.19687Q250.1875 221.47812 250.28125 221.91562Q250.32812 222.18124 250.32812 222.88437L250.32812 224.29062Q250.32812 225.75937 250.39062 226.15Q250.46875 226.54062 250.67188 226.9L249.5625 226.9Q249.40625 226.57187 249.35938 226.13437ZM249.26562 223.775Q248.6875 224.00937 247.54688 224.18124Q246.89062 224.275 246.625 224.4Q246.35938 224.50937 246.20312 224.72812Q246.0625 224.94687 246.0625 225.22812Q246.0625 225.65 246.375 225.93124Q246.70312 226.2125 247.3125 226.2125Q247.92188 226.2125 248.39062 225.94687Q248.875 225.68124 249.09375 225.2125Q249.26562 224.85312 249.26562 224.16562L249.26562 223.775ZM253.26562 226.9L252.28125 226.9L252.28125 218.30624L253.34375 218.30624L253.34375 221.36874Q254.01562 220.54062 255.04688 220.54062Q255.625 220.54062 256.125 220.775Q256.64062 220.99374 256.96875 221.41562Q257.3125 221.8375 257.5 222.43124Q257.6875 223.025 257.6875 223.69687Q257.6875 225.29062 256.89062 226.16562Q256.09375 227.04062 255.0 227.04062Q253.89062 227.04062 253.26562 226.11874L253.26562 226.9ZM253.25 223.74374Q253.25 224.85312 253.5625 225.35312Q254.0625 226.16562 254.90625 226.16562Q255.59375 226.16562 256.09375 225.57187Q256.60938 224.97812 256.60938 223.775Q256.60938 222.55624 256.125 221.97812Q255.64062 221.4 254.95312 221.4Q254.26562 221.4 253.75 222.00937Q253.25 222.60312 253.25 223.74374ZM259.26562 226.9L259.26562 218.30624L260.32812 218.30624L260.32812 226.9L259.26562 226.9ZM266.54688 224.9L267.64062 225.025Q267.39062 225.97812 266.6875 226.50937Q265.98438 227.04062 264.90625 227.04062Q263.54688 227.04062 262.73438 226.19687Q261.9375 225.35312 261.9375 223.8375Q261.9375 222.275 262.75 221.41562Q263.5625 220.54062 264.84375 220.54062Q266.09375 220.54062 266.875 221.38437Q267.67188 222.22812 267.67188 223.775Q267.67188 223.86874 267.67188 224.05624L263.03125 224.05624Q263.09375 225.0875 263.60938 225.63437Q264.125 226.16562 264.90625 226.16562Q265.48438 226.16562 265.89062 225.86874Q266.3125 225.55624 266.54688 224.9ZM263.09375 223.19687L266.5625 223.19687Q266.5 222.4 266.17188 222.00937Q265.65625 221.4 264.85938 221.4Q264.125 221.4 263.625 221.88437Q263.14062 222.36874 263.09375 223.19687ZM272.29688 226.9L272.29688 220.68124L273.23438 220.68124L273.23438 221.55624Q273.53125 221.0875 274.01562 220.82187Q274.5 220.54062 275.125 220.54062Q275.8125 220.54062 276.25 220.82187Q276.70312 221.10312 276.875 221.61874Q277.625 220.54062 278.79688 220.54062Q279.73438 220.54062 280.21875 221.05624Q280.71875 221.55624 280.71875 222.63437L280.71875 226.9L279.67188 226.9L279.67188 222.97812Q279.67188 222.35312 279.5625 222.07187Q279.46875 221.79062 279.20312 221.61874Q278.9375 221.44687 278.5625 221.44687Q277.90625 221.44687 277.46875 221.88437Q277.04688 222.32187 277.04688 223.29062L277.04688 226.9L275.98438 226.9L275.98438 222.85312Q275.98438 222.15 275.71875 221.80624Q275.46875 221.44687 274.89062 221.44687Q274.4375 221.44687 274.0625 221.68124Q273.6875 221.91562 273.51562 222.36874Q273.34375 222.82187 273.34375 223.66562L273.34375 226.9L272.29688 226.9ZM286.375 226.9L286.375 225.97812Q285.64062 227.04062 284.39062 227.04062Q283.84375 227.04062 283.35938 226.8375Q282.89062 226.61874 282.65625 226.30624Q282.42188 225.97812 282.32812 225.50937Q282.26562 225.2125 282.26562 224.525L282.26562 220.68124L283.32812 220.68124L283.32812 224.13437Q283.32812 224.94687 283.39062 225.24374Q283.48438 225.65 283.79688 225.9Q284.125 226.13437 284.60938 226.13437Q285.07812 226.13437 285.48438 225.9Q285.90625 225.65 286.07812 225.22812Q286.26562 224.80624 286.26562 224.00937L286.26562 220.68124L287.3125 220.68124L287.3125 226.9L286.375 226.9ZM289.09375 227.41562L290.125 227.57187Q290.1875 228.04062 290.48438 228.25937Q290.875 228.55624 291.54688 228.55624Q292.28125 228.55624 292.67188 228.25937Q293.07812 227.9625 293.21875 227.44687Q293.3125 227.11874 293.29688 226.0875Q292.60938 226.9 291.57812 226.9Q290.29688 226.9 289.59375 225.97812Q288.89062 225.04062 288.89062 223.75937Q288.89062 222.86874 289.20312 222.11874Q289.53125 221.35312 290.14062 220.94687Q290.75 220.54062 291.57812 220.54062Q292.6875 220.54062 293.40625 221.43124L293.40625 220.68124L294.375 220.68124L294.375 226.05624Q294.375 227.50937 294.07812 228.11874Q293.78125 228.72812 293.14062 229.07187Q292.5 229.43124 291.5625 229.43124Q290.45312 229.43124 289.76562 228.93124Q289.07812 228.43124 289.09375 227.41562ZM289.96875 223.68124Q289.96875 224.9 290.45312 225.4625Q290.9375 226.025 291.67188 226.025Q292.40625 226.025 292.89062 225.4625Q293.39062 224.9 293.39062 223.7125Q293.39062 222.57187 292.875 221.99374Q292.375 221.41562 291.65625 221.41562Q290.95312 221.41562 290.45312 221.99374Q289.96875 222.55624 289.96875 223.68124Z" fill-rule="nonzero"/><path fill="#000000" d="M13.646875 31.1L13.646875 16.7875L19.0375 16.7875Q20.475 16.7875 21.225 16.9125Q22.271875 17.1 22.990625 17.6Q23.709375 18.084375 24.13125 18.975Q24.56875 19.865625 24.56875 20.928125Q24.56875 22.75625 23.396875 24.021875Q22.240625 25.271875 19.209375 25.271875L15.5375 25.271875L15.5375 31.1L13.646875 31.1ZM15.5375 23.584375L19.240625 23.584375Q21.06875 23.584375 21.834375 22.9125Q22.615625 22.225 22.615625 20.975Q22.615625 20.084375 22.1625 19.44375Q21.709375 18.803125 20.975 18.6Q20.490625 18.475 19.19375 18.475L15.5375 18.475L15.5375 23.584375ZM33.521873 27.75625L35.334373 27.990625Q34.9125 29.56875 33.740623 30.459375Q32.584373 31.334375 30.771875 31.334375Q28.50625 31.334375 27.1625 29.94375Q25.834375 28.5375 25.834375 26.00625Q25.834375 23.38125 27.178125 21.94375Q28.521875 20.490625 30.678125 20.490625Q32.75625 20.490625 34.06875 21.9125Q35.396873 23.31875 35.396873 25.896875Q35.396873 26.053125 35.38125 26.365625L27.646875 26.365625Q27.740625 28.06875 28.615625 28.975Q29.490625 29.88125 30.7875 29.88125Q31.75625 29.88125 32.428123 29.38125Q33.115623 28.865625 33.521873 27.75625ZM27.740625 24.9125L33.5375 24.9125Q33.428123 23.615625 32.88125 22.959375Q32.0375 21.94375 30.69375 21.94375Q29.490625 21.94375 28.6625 22.75625Q27.834375 23.553125 27.740625 24.9125ZM37.396873 31.1L37.396873 20.725L38.975 20.725L38.975 22.303125Q39.584373 21.19375 40.1 20.85Q40.615623 20.490625 41.225 20.490625Q42.115623 20.490625 43.0375 21.053125L42.428123 22.69375Q41.7875 22.303125 41.146873 22.303125Q40.56875 22.303125 40.1 22.6625Q39.646873 23.00625 39.44375 23.615625Q39.1625 24.553125 39.1625 25.6625L39.1625 31.1L37.396873 31.1ZM51.19375 27.303125L52.9125 27.521875Q52.63125 29.31875 51.459373 30.334375Q50.303123 31.334375 48.6 31.334375Q46.475 31.334375 45.178123 29.94375Q43.88125 28.553125 43.88125 25.959375Q43.88125 24.271875 44.428123 23.021875Q44.990623 21.75625 46.13125 21.13125Q47.271873 20.490625 48.615623 20.490625Q50.303123 20.490625 51.365623 21.35Q52.44375 22.209375 52.75625 23.771875L51.0375 24.0375Q50.803123 22.990625 50.178123 22.475Q49.553123 21.94375 48.678123 21.94375Q47.35 21.94375 46.521873 22.896875Q45.69375 23.85 45.69375 25.896875Q45.69375 27.990625 46.490623 28.94375Q47.2875 29.88125 48.584373 29.88125Q49.615623 29.88125 50.303123 29.25625Q51.00625 28.615625 51.19375 27.303125ZM61.521873 27.75625L63.334373 27.990625Q62.9125 29.56875 61.740623 30.459375Q60.584373 31.334375 58.771873 31.334375Q56.50625 31.334375 55.1625 29.94375Q53.834373 28.5375 53.834373 26.00625Q53.834373 23.38125 55.178123 21.94375Q56.521873 20.490625 58.678123 20.490625Q60.75625 20.490625 62.06875 21.9125Q63.396873 23.31875 63.396873 25.896875Q63.396873 26.053125 63.38125 26.365625L55.646873 26.365625Q55.740623 28.06875 56.615623 28.975Q57.490623 29.88125 58.7875 29.88125Q59.75625 29.88125 60.428123 29.38125Q61.115623 28.865625 61.521873 27.75625ZM55.740623 24.9125L61.5375 24.9125Q61.428123 23.615625 60.88125 22.959375Q60.0375 21.94375 58.69375 21.94375Q57.490623 21.94375 56.6625 22.75625Q55.834373 23.553125 55.740623 24.9125ZM65.4125 31.1L65.4125 20.725L67.00625 20.725L67.00625 22.209375Q68.14687 20.490625 70.30312 20.490625Q71.24062 20.490625 72.02187 20.834375Q72.81875 21.1625 73.20937 21.709375Q73.6 22.25625 73.75625 23.00625Q73.85 23.50625 73.85 24.725L73.85 31.1L72.08437 31.1L72.08437 24.7875Q72.08437 23.709375 71.88125 23.178125Q71.67812 22.646875 71.14687 22.334375Q70.63125 22.021875 69.92812 22.021875Q68.80312 22.021875 67.99062 22.740625Q67.17812 23.44375 67.17812 25.428125L67.17812 31.1L65.4125 31.1ZM80.25625 29.521875L80.50625 31.084375Q79.77187 31.240625 79.17812 31.240625Q78.225 31.240625 77.69375 30.94375Q77.17812 30.63125 76.95937 30.146875Q76.74062 29.646875 76.74062 28.06875L76.74062 22.1L75.45937 22.1L75.45937 20.725L76.74062 20.725L76.74062 18.1625L78.49062 17.1L78.49062 20.725L80.25625 20.725L80.25625 22.1L78.49062 22.1L78.49062 28.1625Q78.49062 28.9125 78.58437 29.13125Q78.67812 29.334375 78.88125 29.475Q79.1 29.6 79.49062 29.6Q79.77187 29.6 80.25625 29.521875ZM90.33437 31.1L87.1625 20.725L88.975 20.725L90.63125 26.709375L91.24062 28.94375Q91.2875 28.771875 91.77187 26.803125L93.42812 20.725L95.24062 20.725L96.7875 26.740625L97.30312 28.725L97.89687 26.725L99.67812 20.725L101.38125 20.725L98.14687 31.1L96.31875 31.1L94.6625 24.88125L94.27187 23.115625L92.1625 31.1L90.33437 31.1ZM102.42812 18.803125L102.42812 16.7875L104.19375 16.7875L104.19375 18.803125L102.42812 18.803125ZM102.42812 31.1L102.42812 20.725L104.19375 20.725L104.19375 31.1L102.42812 31.1ZM110.25625 29.521875L110.50625 31.084375Q109.77187 31.240625 109.17812 31.240625Q108.225 31.240625 107.69375 30.94375Q107.17812 30.63125 106.95937 30.146875Q106.74062 29.646875 106.74062 28.06875L106.74062 22.1L105.45937 22.1L105.45937 20.725L106.74062 20.725L106.74062 18.1625L108.49062 17.1L108.49062 20.725L110.25625 20.725L110.25625 22.1L108.49062 22.1L108.49062 28.1625Q108.49062 28.9125 108.58437 29.13125Q108.67812 29.334375 108.88125 29.475Q109.1 29.6 109.49062 29.6Q109.77187 29.6 110.25625 29.521875ZM112.4125 31.1L112.4125 16.7875L114.17812 16.7875L114.17812 21.9125Q115.4125 20.490625 117.2875 20.490625Q118.42812 20.490625 119.27187 20.94375Q120.13125 21.396875 120.49062 22.209375Q120.86562 23.00625 120.86562 24.521875L120.86562 31.1L119.11562 31.1L119.11562 24.521875Q119.11562 23.209375 118.5375 22.615625Q117.95937 22.00625 116.92812 22.00625Q116.14687 22.00625 115.44375 22.4125Q114.75625 22.81875 114.45937 23.521875Q114.17812 24.209375 114.17812 25.428125L114.17812 31.1L112.4125 31.1ZM129.67813 31.1L129.67813 16.7875L136.02188 16.7875Q137.92813 16.7875 138.92813 17.178125Q139.92813 17.553125 140.52188 18.5375Q141.11563 19.50625 141.11563 20.69375Q141.11563 22.209375 140.13126 23.25625Q139.14688 24.303125 137.08438 24.584375Q137.83438 24.94375 138.225 25.303125Q139.05313 26.053125 139.80313 27.209375L142.2875 31.1L139.9125 31.1L138.00626 28.115625Q137.17813 26.834375 136.64688 26.146875Q136.11563 25.459375 135.67813 25.19375Q135.25626 24.9125 134.81876 24.803125Q134.49063 24.740625 133.77188 24.740625L131.56876 24.740625L131.56876 31.1L129.67813 31.1ZM131.56876 23.1L135.64688 23.1Q136.94376 23.1 137.6625 22.834375Q138.39688 22.56875 138.77188 21.975Q139.1625 21.38125 139.1625 20.69375Q139.1625 19.678125 138.42813 19.021875Q137.69376 18.365625 136.1 18.365625L131.56876 18.365625L131.56876 23.1ZM150.52188 27.75625L152.33438 27.990625Q151.9125 29.56875 150.74063 30.459375Q149.58438 31.334375 147.77188 31.334375Q145.50626 31.334375 144.1625 29.94375Q142.83438 28.5375 142.83438 26.00625Q142.83438 23.38125 144.17813 21.94375Q145.52188 20.490625 147.67813 20.490625Q149.75626 20.490625 151.06876 21.9125Q152.39688 23.31875 152.39688 25.896875Q152.39688 26.053125 152.38126 26.365625L144.64688 26.365625Q144.74063 28.06875 145.61563 28.975Q146.49063 29.88125 147.7875 29.88125Q148.75626 29.88125 149.42813 29.38125Q150.11563 28.865625 150.52188 27.75625ZM144.74063 24.9125L150.5375 24.9125Q150.42813 23.615625 149.88126 22.959375Q149.0375 21.94375 147.69376 21.94375Q146.49063 21.94375 145.6625 22.75625Q144.83438 23.553125 144.74063 24.9125ZM161.20938 31.1L161.20938 29.56875Q160.00626 31.334375 157.92813 31.334375Q157.00626 31.334375 156.20938 30.990625Q155.4125 30.63125 155.02188 30.1Q154.64688 29.56875 154.49063 28.7875Q154.38126 28.271875 154.38126 27.146875L154.38126 20.725L156.13126 20.725L156.13126 26.475Q156.13126 27.85 156.24063 28.334375Q156.4125 29.021875 156.94376 29.428125Q157.49063 29.81875 158.27188 29.81875Q159.06876 29.81875 159.75626 29.4125Q160.45938 29.00625 160.74063 28.31875Q161.0375 27.615625 161.0375 26.2875L161.0375 20.725L162.7875 20.725L162.7875 31.1L161.20938 31.1ZM164.70938 28.00625L166.45938 27.725Q166.6 28.771875 167.27188 29.334375Q167.94376 29.88125 169.14688 29.88125Q170.35 29.88125 170.92813 29.396875Q171.52188 28.896875 171.52188 28.240625Q171.52188 27.646875 171.00626 27.303125Q170.64688 27.06875 169.20938 26.709375Q167.27188 26.209375 166.52188 25.865625Q165.7875 25.50625 165.39688 24.88125Q165.00626 24.240625 165.00626 23.475Q165.00626 22.7875 165.31876 22.19375Q165.64688 21.6 166.19376 21.209375Q166.6 20.9125 167.30313 20.709375Q168.02188 20.490625 168.83438 20.490625Q170.05313 20.490625 170.975 20.85Q171.89688 21.19375 172.33438 21.803125Q172.77188 22.396875 172.94376 23.396875L171.225 23.63125Q171.1 22.834375 170.5375 22.396875Q169.975 21.94375 168.95938 21.94375Q167.74063 21.94375 167.225 22.35Q166.70938 22.740625 166.70938 23.271875Q166.70938 23.615625 166.92813 23.896875Q167.13126 24.178125 167.6 24.365625Q167.86563 24.459375 169.14688 24.803125Q171.02188 25.303125 171.75626 25.63125Q172.49063 25.94375 172.9125 26.553125Q173.33438 27.146875 173.33438 28.053125Q173.33438 28.928125 172.81876 29.709375Q172.30313 30.490625 171.33438 30.9125Q170.36563 31.334375 169.14688 31.334375Q167.13126 31.334375 166.06876 30.490625Q165.00626 29.646875 164.70938 28.00625ZM182.19376 29.81875Q181.20938 30.646875 180.30313 30.990625Q179.39688 31.334375 178.36563 31.334375Q176.6625 31.334375 175.74063 30.50625Q174.81876 29.6625 174.81876 28.365625Q174.81876 27.6 175.1625 26.975Q175.52188 26.35 176.08438 25.975Q176.64688 25.584375 177.35 25.38125Q177.86563 25.25625 178.9125 25.115625Q181.0375 24.865625 182.0375 24.521875Q182.05313 24.1625 182.05313 24.053125Q182.05313 22.990625 181.55313 22.5375Q180.88126 21.94375 179.55313 21.94375Q178.30313 21.94375 177.70938 22.38125Q177.13126 22.81875 176.85 23.928125L175.13126 23.69375Q175.36563 22.584375 175.89688 21.9125Q176.42813 21.225 177.44376 20.865625Q178.45938 20.490625 179.80313 20.490625Q181.13126 20.490625 181.95938 20.803125Q182.7875 21.115625 183.17813 21.6Q183.56876 22.06875 183.725 22.7875Q183.81876 23.240625 183.81876 24.4125L183.81876 26.75625Q183.81876 29.209375 183.92813 29.865625Q184.0375 30.50625 184.38126 31.1L182.5375 31.1Q182.27188 30.553125 182.19376 29.81875ZM182.0375 25.896875Q181.08438 26.2875 179.1625 26.553125Q178.08438 26.709375 177.63126 26.9125Q177.19376 27.1 176.94376 27.475Q176.69376 27.85 176.69376 28.31875Q176.69376 29.021875 177.225 29.490625Q177.75626 29.959375 178.7875 29.959375Q179.80313 29.959375 180.58438 29.521875Q181.38126 29.06875 181.75626 28.303125Q182.0375 27.69375 182.0375 26.5375L182.0375 25.896875ZM188.0375 31.1L186.4125 31.1L186.4125 16.7875L188.1625 16.7875L188.1625 21.896875Q189.2875 20.490625 191.00626 20.490625Q191.95938 20.490625 192.81876 20.88125Q193.67813 21.271875 194.225 21.975Q194.77188 22.6625 195.08438 23.646875Q195.39688 24.63125 195.39688 25.75625Q195.39688 28.428125 194.08438 29.88125Q192.77188 31.334375 190.92813 31.334375Q189.08438 31.334375 188.0375 29.803125L188.0375 31.1ZM188.02188 25.834375Q188.02188 27.69375 188.52188 28.5375Q189.36563 29.88125 190.77188 29.88125Q191.92813 29.88125 192.75626 28.88125Q193.6 27.88125 193.6 25.896875Q193.6 23.865625 192.7875 22.9125Q191.99063 21.94375 190.85 21.94375Q189.69376 21.94375 188.85 22.94375Q188.02188 23.94375 188.02188 25.834375ZM197.38126 31.1L197.38126 16.7875L199.13126 16.7875L199.13126 31.1L197.38126 31.1ZM208.52188 27.75625L210.33438 27.990625Q209.9125 29.56875 208.74063 30.459375Q207.58438 31.334375 205.77188 31.334375Q203.50626 31.334375 202.1625 29.94375Q200.83438 28.5375 200.83438 26.00625Q200.83438 23.38125 202.17813 21.94375Q203.52188 20.490625 205.67813 20.490625Q207.75626 20.490625 209.06876 21.9125Q210.39688 23.31875 210.39688 25.896875Q210.39688 26.053125 210.38126 26.365625L202.64688 26.365625Q202.74063 28.06875 203.61563 28.975Q204.49063 29.88125 205.7875 29.88125Q206.75626 29.88125 207.42813 29.38125Q208.11563 28.865625 208.52188 27.75625ZM202.74063 24.9125L208.5375 24.9125Q208.42813 23.615625 207.88126 22.959375Q207.0375 21.94375 205.69376 21.94375Q204.49063 21.94375 203.6625 22.75625Q202.83438 23.553125 202.74063 24.9125ZM218.58438 31.1L218.58438 16.7875L221.44376 16.7875L224.81876 26.9125Q225.2875 28.334375 225.50626 29.0375Q225.75626 28.25625 226.27188 26.740625L229.69376 16.7875L232.24063 16.7875L232.24063 31.1L230.42813 31.1L230.42813 19.115625L226.25626 31.1L224.55313 31.1L220.4125 18.9125L220.4125 31.1L218.58438 31.1ZM242.20938 31.1L242.20938 29.56875Q241.00626 31.334375 238.92813 31.334375Q238.00626 31.334375 237.20938 30.990625Q236.4125 30.63125 236.02188 30.1Q235.64688 29.56875 235.49063 28.7875Q235.38126 28.271875 235.38126 27.146875L235.38126 20.725L237.13126 20.725L237.13126 26.475Q237.13126 27.85 237.24063 28.334375Q237.4125 29.021875 237.94376 29.428125Q238.49063 29.81875 239.27188 29.81875Q240.06876 29.81875 240.75626 29.4125Q241.45938 29.00625 241.74063 28.31875Q242.0375 27.615625 242.0375 26.2875L242.0375 20.725L243.7875 20.725L243.7875 31.1L242.20938 31.1ZM246.1 31.959375L247.80313 32.209373Q247.9125 33.00625 248.39688 33.365623Q249.05313 33.85 250.19376 33.85Q251.4125 33.85 252.06876 33.365623Q252.74063 32.88125 252.975 32.00625Q253.11563 31.459375 253.1 29.740625Q251.94376 31.1 250.225 31.1Q248.08438 31.1 246.9125 29.553125Q245.74063 28.00625 245.74063 25.85Q245.74063 24.365625 246.27188 23.115625Q246.81876 21.865625 247.83438 21.178125Q248.86563 20.490625 250.24063 20.490625Q252.06876 20.490625 253.27188 21.975L253.27188 20.725L254.88126 20.725L254.88126 29.69375Q254.88126 32.115623 254.38126 33.115623Q253.89688 34.13125 252.81876 34.709373Q251.75626 35.303123 250.19376 35.303123Q248.35 35.303123 247.19376 34.475Q246.05313 33.646873 246.1 31.959375ZM247.55313 25.725Q247.55313 27.771875 248.36563 28.709375Q249.17813 29.646875 250.39688 29.646875Q251.6 29.646875 252.4125 28.709375Q253.24063 27.771875 253.24063 25.7875Q253.24063 23.88125 252.39688 22.9125Q251.55313 21.94375 250.36563 21.94375Q249.19376 21.94375 248.36563 22.896875Q247.55313 23.85 247.55313 25.725Z" fill-rule="nonzero"/></svg>